<svg id="Layer_1" data-name="Layer 1" xmlns="http://www.w3.org/2000/svg" viewBox="0 0 200.45 206.97"><path d="M20.56,11.43H67.12l42.42,45.05H4.42V27.57A16.14,16.14,0,0,1,20.56,11.43Z" style="fill:#47509d"/><polygon points="143.33 81.82 143.33 11.43 70.5 11.43 143.33 81.82" style="fill:#ef4333"/><path d="M193.16,28.79V75.34l-45,42.42V12.65H177A16.13,16.13,0,0,1,193.16,28.79Z" style="fill:#efb134"/><path d="M4.42,185.38V137.87L49.47,94.58V201.85H20.56A16.31,16.31,0,0,1,4.42,185.38Z" style="fill:#cc1e43"/><polygon points="76.03 61.17 4.42 61.17 4.42 132.97 76.03 61.17" style="fill:#87449b"/><path d="M193.16,134.66V81.82l-68.6,69h54.61C186.9,150.8,193.16,143.57,193.16,134.66Z" style="fill:#68c6c6"/><rect x="82.51" y="91.6" width="13.23" height="13.23" style="fill:#fff"/><rect x="82.51" y="106.9" width="13.23" height="13.23" style="fill:#fff"/><rect x="97.57" y="106.9" width="13.23" height="13.23" style="fill:#fff"/><rect x="97.57" y="91.6" width="13.23" height="13.23" style="fill:#fff"/></svg>